<svg xmlns="http://www.w3.org/2000/svg" viewBox="0 0 481 481" width="481" height="481">
	<style>
		tspan { white-space:pre }
		.portrait0 { fill: #d8cfdb } 
		.portrait1 { fill: #652f55 } 
		.portrait2 { fill: #441e39 } 
		.portrait3 { fill: #ebad95 } 
		.portrait4 { fill: #c6866d } 
		.portrait5 { fill: #fec7a8 } 
		.portrait6 { opacity: 0.22;fill: #f57f73 } 
		.portrait7 { opacity: 0.231;fill: #000000 } 
		.portrait8 { opacity: 0.659;fill: #f57f73 } 
		.portrait9 { fill: #cd6c62 } 
		.portrait10 { fill: #ffc7a6 } 
		.portrait11 { fill: #7c3667 } 
		.portrait12 { fill: #f4e6e6 } 
		.portrait13 { fill: #101010 } 
		.portrait14 { fill: #000000 } 
		.portrait15 { fill: #ffffff } 
		.portrait16 { fill: #b7ab27 } 
		.portrait17 { fill: #70889b } 
		.portrait18 { fill: #476074 } 
	</style>
	<path id="Ellipse 1" class="portrait0" d="M240.53 0.41C373.08 0.41 480.53 107.86 480.53 240.42C480.53 372.98 373.08 480.44 240.53 480.44C107.98 480.44 0.53 372.98 0.53 240.42C0.53 107.86 107.98 0.41 240.53 0.41Z" />
	<g id="hairback">
		<path id="hairbackl" class="portrait1" d="M130 211L92 391L407 395C407 395 347.67 251.67 344 226C340.33 200.33 130 211 130 211Z" />
		<path id="hairbackd" class="portrait2" d="M137 251C137 251 119.75 371.59 107 385C94.25 398.41 212 377 212 377L381 386C381 386 341.75 251.09 347 240C352.25 228.91 179 255 179 255L145 252L137 251Z" />
	</g>
	<g id="neck">
		<path id="cou" class="portrait3" d="M200 277C200 277 203.57 331.67 203 343C202.43 354.33 190.24 352 184 356C177.76 360 200.91 389 240 388C279.09 387 301.24 362 302 352C302.76 342 284.24 349.67 284 341C283.76 332.33 280 269 280 269L200 277Z" />
		<path id="cou_shadow" class="portrait4" d="M200 277C200 277 201.36 297.79 202.27 316.38C210.6 332.49 285.01 364.46 282.75 316.49C281.57 295.44 280 269 280 269L200 277Z" />
	</g>
	<g id="visage">
		<path id="visqge" class="portrait5" d="M243.43 321.11C265.63 320.43 320.23 306.33 325.68 218.06C331.12 129.79 310.18 95.91 237.56 95.04C164.95 94.16 140.05 128.64 147.97 193C160.14 309.23 221.23 321.8 243.43 321.11Z" />
		<g id="cheek2">
			<path id="cheeks" class="portrait6" d="M191.76 224.76C205.83 224.22 217.68 235.19 218.23 249.26C218.77 263.33 207.8 275.18 193.73 275.72C179.65 276.26 167.81 265.3 167.26 251.22C166.72 237.15 177.69 225.3 191.76 224.76Z" />
			<path id="freckles2" class="portrait7" d="M204.45 252.8C203.27 254.26 204.55 257.38 206.59 255.3C208.63 253.21 208.31 251.55 206.59 251.13C204.88 250.71 205.63 251.34 204.45 252.8ZM181.45 254.8C180.27 256.26 181.55 259.38 183.59 257.3C185.63 255.21 185.31 253.55 183.59 253.13C181.88 252.71 182.63 253.34 181.45 254.8ZM190.45 244.8C189.27 246.26 190.55 249.38 192.59 247.3C194.63 245.21 194.31 243.55 192.59 243.13C190.88 242.71 191.63 243.34 190.45 244.8ZM193.45 258.8C192.27 260.26 193.55 263.38 195.59 261.3C197.63 259.21 197.31 257.55 195.59 257.13C193.88 256.71 194.63 257.34 193.45 258.8Z" />
		</g>
		<g id="cheek">
			<path id="cheeks2" class="portrait6" d="M288.69 221.02C302.76 220.48 314.61 231.45 315.15 245.52C315.7 259.59 304.73 271.44 290.66 271.98C276.58 272.53 264.73 261.56 264.19 247.48C263.65 233.41 274.62 221.56 288.69 221.02Z" />
			<path id="freckles" class="portrait7" d="M304.45 247.8C303.27 249.26 304.55 252.38 306.59 250.3C308.63 248.21 308.31 246.55 306.59 246.13C304.88 245.71 305.63 246.34 304.45 247.8ZM281.45 249.8C280.27 251.26 281.55 254.38 283.59 252.3C285.63 250.21 285.31 248.55 283.59 248.13C281.88 247.71 282.63 248.34 281.45 249.8ZM290.45 239.8C289.27 241.26 290.55 244.38 292.59 242.3C294.63 240.21 294.31 238.55 292.59 238.13C290.88 237.71 291.63 238.34 290.45 239.8ZM293.45 253.8C292.27 255.26 293.55 258.38 295.59 256.3C297.63 254.21 297.31 252.55 295.59 252.13C293.88 251.71 294.63 252.34 293.45 253.8Z" />
		</g>
		<g id="nose">
			<path id="nose" class="portrait8" d="M254.94 137.26C254.94 137.26 236.2 178.68 244.07 244.76C247.21 265.77 246.8 263.67 246.8 263.67L258.37 252.21L247.82 221.76C246.8 192.11 251.22 148.9 254.94 137.26Z" />
			<path id="nostril2" class="portrait9" d="M248.69 260.59C248.69 260.59 257.28 255.63 257.45 254.25C253.57 250.07 248.69 260.59 248.69 260.59Z" />
			<path id="nostril1" class="portrait9" d="M241.77 262.86C241.77 262.86 232.82 258.58 232.54 257.21C236.09 252.74 241.77 262.86 241.77 262.86Z" />
		</g>
		<path id="mouth" class="portrait9" d="M209.1 272.13C209.1 272.13 226.35 284.08 244.58 283.77C262.8 283.46 279.16 272.43 279.16 272.43C279.16 272.43 263.04 281.87 244.5 281.77C225.96 281.67 209.1 272.13 209.1 272.13Z" />
		<g id="ear2">
			<path id="ear4" class="portrait5" d="M316.47 202.69C316.47 202.69 354.85 193.58 352.45 227.7C350.05 261.82 317.67 259.95 317.67 259.95L316.47 202.69Z" />
			<path id="ear3" class="portrait4" d="M346 237C346 237 352.25 205.56 335 211C317.75 216.44 323.75 226.81 321 231C318.25 235.19 319 242 319 242C319 242 316.75 249.31 322 243C327.25 236.69 331.5 238.31 333 241C334.5 243.69 340.25 235.81 336 233C331.75 230.19 326.25 230.56 324 233C321.75 235.44 324 225.06 329 222C334 218.94 338.75 212.81 341 217C343.25 221.19 346 237 346 237Z" />
		</g>
		<g id="ear">
			<path id="ear2" class="portrait10" d="M158.59 207.31C158.59 207.31 120.59 200.43 125.62 234.26C130.64 268.09 165.79 263.96 165.79 263.96L158.59 207.31Z" />
			<path id="ear1" class="portrait4" d="M134 241C134 241 127.75 209.56 145 215C162.25 220.44 156.25 230.81 159 235C161.75 239.19 161 246 161 246C161 246 163.25 253.31 158 247C152.75 240.69 148.5 242.31 147 245C145.5 247.69 139.75 239.81 144 237C148.25 234.19 153.75 234.56 156 237C158.25 239.44 156 229.06 151 226C146 222.94 141.25 216.81 139 221C136.75 225.19 134 241 134 241Z" />
		</g>
		<g id="hair">
			<path id="hair" class="portrait1" d="M324.32 244.01C324.32 244.01 331.34 221.85 336.38 215.52C341.42 209.19 346.71 184.82 342.16 148.11C337.61 111.39 305.79 83.67 278.84 82.74C235.31 78.63 236.15 90.19 236.15 90.19C236.15 90.19 226.17 80.69 199.96 86.39C173.75 92.09 142.33 128.17 138.71 139.56C135.08 150.96 110.78 169.31 120.15 202.23C121.74 215.9 134.07 224.87 134.07 224.87L148.92 230.81L160.41 256C160.41 256 154.4 209.83 160.98 197.48C167.56 185.14 176.67 188.94 190.68 153.8C204.69 118.67 213.48 129.75 231.51 131.97C249.54 134.18 264.83 124.37 273.27 128.17C281.71 131.97 281.54 135.76 287.2 157.6C292.85 179.44 302.58 187.35 309.47 188.94C316.36 190.52 324.32 244.01 324.32 244.01Z" />
			<path id="highlight" class="portrait11" d="M235 115C235 115 212.44 96.8 188 122C163.56 147.2 173.24 142.2 188 128C202.76 113.8 205.84 112.2 218 114C230.16 115.8 235 115 235 115ZM228 100C220.56 95.2 215.64 92.6 209 93C202.36 93.4 192.44 98.4 190 101C187.56 103.6 195.64 92.4 209 96C222.36 99.6 235.44 104.8 228 100ZM229 107C229 107 223.44 101.6 212 101C200.56 100.4 201.44 102 200 103C198.56 104 209.04 102.6 214 104C218.96 105.4 229 107 229 107ZM242 98C251.16 93 251.84 87.8 270 90C288.16 92.2 293.64 96.6 297 98C300.36 99.4 293.24 99 285 96C276.76 93 263.84 91.4 258 93C252.16 94.6 247.24 99.2 245 99C242.76 98.8 232.84 103 242 98ZM243 106C243 106 270.04 92.4 285 102C299.96 111.6 300.64 112.6 303 117C305.36 121.4 294.44 111.2 288 107C281.56 102.8 279.64 100.6 272 101C264.36 101.4 243 106 243 106ZM242 118C242 118 242.29 117.65 242.95 117.13C245.39 115.18 252.82 110.74 269 112C289.56 113.6 298.24 128 300 133C301.76 138 295.64 131.4 291 126C286.36 120.6 275.24 115.8 268 115M136 165C136 165 116.84 172.5 133 221C132.09 218.1 137 226 137 226C137 226 133.84 220.3 132 201C130.16 181.7 131.56 168.76 136 165ZM293 150C297.01 162.41 300.84 173.4 308 180C315.16 186.6 316.64 185.2 318 194C319.36 202.8 321.24 207.4 321 198C320.76 188.6 322.64 193.4 314 182C305.36 170.6 305.24 171.6 301 161C296.76 150.4 299.04 147.6 291 138C282.96 128.4 287.04 132.8 286 134C284.96 135.2 290.63 142.66 293 150ZM175 152C175 152 172.84 167.6 158 178C143.16 188.4 148.84 199 148 206C147.16 213 147.64 225.8 146 200C144.36 174.2 157.64 177 163 170C168.36 163 175 152 175 152ZM166 124C166 124 152.44 144.2 146 151C139.56 157.8 128.44 175 154 145C179.56 115 176.44 118.2 181 116C185.56 113.8 174.24 117.8 171 120C167.76 122.2 166 124 166 124ZM315 130C315 130 321.84 131.8 328 164C334.16 196.2 333.84 198.6 334 191C334.16 183.4 333.84 182.4 328 152C322.16 121.6 321.64 130.8 313 124C304.36 117.2 307 121 307 121L315 130ZM321 183C321 183 330.64 201.8 326 219C321.36 236.2 324.44 238.6 327 231C329.56 223.4 334.04 227.8 331 208C327.96 188.2 323.04 177.4 318 161C312.96 144.6 310 144 310 144C310 144 316.44 158.8 317 162C317.56 165.2 321 183 321 183Z" />
		</g>
		<g id="eye2">
			<path id="whiteeye2" class="portrait12" d="M314.28 210.68C314.28 210.68 307.77 231.26 291.05 228.53C274.32 225.79 270.54 220.56 270.33 210.21C270.12 199.86 284.49 193.64 288.7 194.38C292.91 195.11 314.23 206.78 314.23 206.78L314.28 210.68Z" />
			<path id="eye2" class="portrait13" d="M283.18 197.49C283.18 197.49 298.7 192.43 303.78 205.07C308.85 217.7 303.25 225.42 295.25 227.62C287.24 229.82 275.5 228.78 274.59 214.19C273.67 199.6 283.18 197.49 283.18 197.49Z" />
			<path id="lashes2" class="portrait14" d="M269.59 215.64C269.59 215.64 270.2 200.89 281.07 195C291.95 189.1 302.58 193.44 304.51 194.73C306.43 196.01 326.14 208.15 326.14 208.15C326.14 208.15 319.41 213.27 313.45 208.3C307.49 203.33 298.69 198.7 298.69 198.7C298.69 198.7 282.11 196.55 278.22 201.81C274.33 207.07 269.59 215.64 269.59 215.64Z" />
			<path id="eyelight2" class="portrait15" d="M282 202C282 202 278.14 204.75 281 206C283.86 207.25 285.64 209.75 287 207C288.36 204.25 283 201 283 201L282 202Z" />
		</g>
		<g id="eye1">
			<path id="whiteeye" class="portrait12" d="M172.73 214.26C172.73 214.26 179.71 234.69 196.36 231.57C213.02 228.45 216.68 223.13 216.65 212.78C216.63 202.43 202.12 196.54 197.92 197.37C193.73 198.2 172.68 210.36 172.68 210.36L172.73 214.26Z" />
			<path id="eye" class="portrait13" d="M194.3 199.51C194.3 199.51 184.03 201.98 181.74 211.37C179.45 220.76 181.93 231.79 196.62 231.71C211.31 231.62 211.09 215.92 211.09 215.92C211.09 215.92 211.38 202.89 202.12 200.39C192.86 197.9 194.3 199.51 194.3 199.51Z" />
			<path id="lashes" class="portrait14" d="M219.47 218.16C219.47 218.16 218.52 203.44 207.51 197.8C196.51 192.15 185.97 196.73 184.08 198.07C182.19 199.4 162.76 211.98 162.76 211.98C162.76 211.98 169.61 216.94 175.45 211.84C181.29 206.73 189.98 201.9 189.98 201.9C189.98 201.9 205.56 201.39 209.57 206.56C213.58 211.73 219.47 218.16 219.47 218.16Z" />
			<path id="eyelight" class="portrait15" d="M185 205C185 205 181.14 207.75 184 209C186.86 210.25 188.64 212.75 190 210C191.36 207.25 186 204 186 204L185 205Z" />
		</g>
		<path id="lunettes" fill-rule="evenodd" class="portrait16" d="M172.31 175.12C174.77 173.87 185.86 165.62 209.31 176.12C232.77 186.62 230.31 208.12 230.31 208.12C230.31 208.12 235.36 200.37 245.31 202.12C255.27 203.87 257.11 219.37 257.31 211.12C257.52 202.87 258.35 196.67 264.43 185.61C270.35 174.83 289.3 168.67 299.31 169.12C309.27 169.58 323.36 179.37 328.31 189.12C333.27 198.87 332.11 218.62 330.31 223.12C328.52 227.62 313.61 242.62 305.31 245.12C297.02 247.62 288.86 247.37 275.31 242.12C261.77 236.87 258.31 219.12 258.31 219.12C258.31 219.12 250.61 209.37 247.31 206.12C244.02 202.87 231.86 207.37 230.31 216.12C231.66 226.89 218.31 241.12 218.31 241.12C218.31 241.12 194.61 260.37 165.31 243.12C140.27 227.49 150.8 193.37 154.31 187.12C157.82 180.88 169.86 176.37 172.31 175.12ZM158.31 186.12C158.31 186.12 152.52 195.37 152.31 212.12C152.11 228.87 162.61 237.06 170.31 242.12C178.01 247.19 190.02 248.62 197.31 247.12C204.61 245.62 217.81 242.67 224.31 228.12C227.83 221.4 227.31 206.12 227.31 206.12C227.31 206.12 225.67 194.36 217.31 187.12C209.86 178.12 200.26 174.13 187.31 174.12C174.36 174.12 158.31 186.12 158.31 186.12ZM274.31 182.12C274.31 182.12 256.77 191.87 261.31 220.12C274.93 248.2 289.18 242.82 297.31 243.12C305.44 243.43 323.25 235.21 327.31 221.12C331.37 207.04 326.31 192.12 326.31 192.12C326.31 192.12 320.18 176.17 303.31 173.12C286.44 170.08 274.31 182.12 274.31 182.12Z" />
	</g>
	<g id="pull">
		<path id="pull" class="portrait17" d="M187 353C187 353 234.18 390.67 301 347C344.99 343.98 405 392 405 392C405 392 409.54 395.76 417.29 402.38C412.12 410.97 348.72 476.97 252.91 479.72C125.99 484.43 58.9 396.51 58.9 396.51C58.9 396.51 105.03 367.16 158 360C174.44 351.67 187 353 187 353Z" />
		<path id="pull2" class="portrait18" d="M315 371C315 371 310.5 373.75 304 377C297.5 380.25 271 393 248 393C225 393 236 392 236 392C236 392 241.5 380.75 241 375C240.5 369.25 238.25 366.25 236 376C233.75 385.75 232 393 232 393C232 393 191.32 391.16 175 372C168 363.5 167 366 167 366C167 366 161.75 367.25 167 371C172.25 374.75 181 382.5 191 387C201 391.5 217.25 397.25 249 395C280.75 392.75 283.75 388 296 383C308.25 378 314.75 374.5 316 372C317.25 369.5 315 371 315 371ZM262 369C261 368.25 260.25 370.25 260 373C259.75 375.75 260 385.25 261 387C262 388.75 262.25 391.75 263 388C263.75 384.25 263 380.5 263 377C263 373.5 263 369.75 262 369ZM280 370C278.75 366 276.75 367 277 368C277.25 369 276.25 370 277 374C277.75 378 280 384 281 384C282 384 283.25 384.75 283 382C282.75 379.25 281.25 374 280 370ZM298 360C297.25 358 297.5 358.25 296 357C294.5 355.75 294 357.25 294 359C294 360.75 295 363.5 295 364C295 364.5 296 371 296 371C296 371 295 374.5 298 375C301 375.5 301 376.5 300 371C299 365.5 298.75 362 298 360ZM217 369C217 369 206.5 378.75 206 382C205.5 385.25 209.5 383.25 210 383C210.5 382.75 216 375 216 375L217 369ZM201 363C201 363 194.25 369.75 190 371C185.75 372.25 184 373 184 373L185 375L189 376L197 371L202 364L201 363Z" />
	</g>
</svg>