<?xml version="1.0" encoding="UTF-8"?><!DOCTYPE svg PUBLIC "-//W3C//DTD SVG 1.1//EN" "http://www.w3.org/Graphics/SVG/1.1/DTD/svg11.dtd"><svg xmlns="http://www.w3.org/2000/svg" xmlns:xlink="http://www.w3.org/1999/xlink" version="1.1" width="34" height="32" viewBox="0 0 34 32"><path fill="#444" d="M21.66 10.97c.695 0 1.264-.563 1.264-1.253s-.569-1.253-1.264-1.253c-.695 0-1.264.563-1.264 1.253 0 .695.563 1.253 1.264 1.253z"/><path fill="#444" d="M20.425 12.067h2.442v9.183h-2.442v-9.183z"/><path fill="#444" d="M12.655 18.171h3.304l.893 3.076h2.501L15.721 9.181h-3.036v1.191L9.5 21.247h2.262l.893-3.076zm1.637-6.843l1.221 4.733h-2.441l1.22-4.733z"/><path fill="#444" d="M3.002 2.316v27.007h27.582V2.316H3.002zm25.514 24.881H5.11V4.442h23.406v22.755z"/><metadata><rdf:RDF xmlns:rdf="http://www.w3.org/1999/02/22-rdf-syntax-ns#" xmlns:rdfs="http://www.w3.org/2000/01/rdf-schema#" xmlns:dc="http://purl.org/dc/elements/1.1/"><rdf:Description about="https://iconscout.com/legal#licenses" dc:title="illustrator" dc:description="illustrator" dc:publisher="Iconscout" dc:date="2017-09-24" dc:format="image/svg+xml" dc:language="en"><dc:creator><rdf:Bag><rdf:li>Vorillaz</rdf:li></rdf:Bag></dc:creator></rdf:Description></rdf:RDF></metadata></svg>