<?xml version="1.0" encoding="UTF-8"?><!DOCTYPE svg PUBLIC "-//W3C//DTD SVG 1.1//EN" "http://www.w3.org/Graphics/SVG/1.1/DTD/svg11.dtd"><svg xmlns="http://www.w3.org/2000/svg" xmlns:xlink="http://www.w3.org/1999/xlink" version="1.1" width="32" height="32" viewBox="0 0 32 32"><path fill="#444" d="M10.372 13.069H6.405L4.69 21.753h2.037l.429-2.251h1.93c1.822.107 3.86-1.394 3.86-3.967 0-1.501-.858-2.359-2.573-2.466zm-1.501 4.825H7.584l.536-3.216h1.394c.75 0 1.287.322 1.287.965-.107 1.823-.965 2.144-1.93 2.251zm8.684-4.825h-1.93l.429-2.251h-2.037l-1.715 8.684h2.037l.965-4.824h1.608c.751 0 .751.322.643.858l-.75 3.967h2.144l.75-4.396c.214-1.072-.429-1.93-2.144-2.037zm7.183 0h-3.967l-1.715 8.684h2.037l.429-2.251h1.93c1.823.107 3.86-1.394 3.86-3.967 0-1.501-.858-2.359-2.573-2.466zm-1.501 4.825H21.95l.536-3.216h1.394c.751 0 1.287.322 1.287.965-.107 1.823-.965 2.144-1.93 2.251z"/><metadata><rdf:RDF xmlns:rdf="http://www.w3.org/1999/02/22-rdf-syntax-ns#" xmlns:rdfs="http://www.w3.org/2000/01/rdf-schema#" xmlns:dc="http://purl.org/dc/elements/1.1/"><rdf:Description about="https://iconscout.com/legal#licenses" dc:title="php" dc:description="php" dc:publisher="Iconscout" dc:date="2017-09-24" dc:format="image/svg+xml" dc:language="en"><dc:creator><rdf:Bag><rdf:li>Vorillaz</rdf:li></rdf:Bag></dc:creator></rdf:Description></rdf:RDF></metadata></svg>